ISO-10303-21;
HEADER;
FILE_DESCRIPTION(('ViewDefinition [CoordinationView]'),'2;1');
FILE_NAME('','2026-05-24T12:33:03',(''),(''),'IfcOpenShell 0.8.0','IfcOpenShell 0.8.0','');
FILE_SCHEMA(('IFC2X3'));
ENDSEC;
DATA;
#1=IFCTELECOMADDRESS($,$,$,$,$,$,('hans.martin.eikerol@vavisjon.no'),$);
#2=IFCPERSON($,'Eikerol','Hans',('Martin'),$,$,$,(#1));
#3=IFCORGANIZATION($,'','',$,$);
#4=IFCPERSONANDORGANIZATION(#2,#3,$);
#5=IFCORGANIZATION($,'Autodesk Revit 2019 (ENU)',$,$,$);
#6=IFCAPPLICATION(#5,'2019','Autodesk Revit 2019 (ENU)','Revit');
#7=IFCOWNERHISTORY(#4,#6,$,.NOCHANGE.,$,$,$,1556267234);
#8=IFCCARTESIANPOINT((0.,0.,0.));
#9=IFCAXIS2PLACEMENT3D(#8,$,$);
#10=IFCLOCALPLACEMENT($,#9);
#11=IFCAXIS2PLACEMENT3D(#8,$,$);
#12=IFCLOCALPLACEMENT(#10,#11);
#13=IFCAXIS2PLACEMENT3D(#8,$,$);
#14=IFCLOCALPLACEMENT(#12,#13);
#15=IFCCARTESIANPOINT((17757.0418771304,27419.1196975649,400.));
#16=IFCDIRECTION((0.,0.,1.));
#17=IFCDIRECTION((0.994886834413004,-0.100995973739908,0.));
#18=IFCAXIS2PLACEMENT3D(#15,#16,#17);
#19=IFCLOCALPLACEMENT(#14,#18);
#20=IFCCARTESIANPOINT((5416.,-158.,0.));
#21=IFCAXIS2PLACEMENT3D(#20,$,$);
#22=IFCLOCALPLACEMENT(#19,#21);
#23=IFCAXIS2PLACEMENT3D(#8,$,$);
#24=IFCLOCALPLACEMENT(#22,#23);
#25=IFCAXIS2PLACEMENT3D(#8,$,$);
#26=IFCDIRECTION((6.12303176911189E-17,1.));
#27=IFCGEOMETRICREPRESENTATIONCONTEXT($,'Model',3,0.01,#25,#26);
#28=IFCGEOMETRICREPRESENTATIONSUBCONTEXT('Body','Model',*,*,*,*,#27,$,.MODEL_VIEW.,$);
#29=IFCAXIS2PLACEMENT3D(#8,$,$);
#30=IFCCARTESIANPOINT((-526.,-1057.));
#31=IFCCARTESIANPOINT((526.,-1057.));
#32=IFCCARTESIANPOINT((526.,1019.));
#33=IFCCARTESIANPOINT((450.,1019.));
#34=IFCCARTESIANPOINT((450.,-981.));
#35=IFCCARTESIANPOINT((-450.,-981.));
#36=IFCCARTESIANPOINT((-450.,1019.));
#37=IFCCARTESIANPOINT((-526.,1019.));
#38=IFCPOLYLINE((#30,#31,#32,#33,#34,#35,#36,#37,#30));
#39=IFCARBITRARYCLOSEDPROFILEDEF(.AREA.,'_900x2000mm',#38);
#40=IFCCARTESIANPOINT((450.,316.,1019.));
#41=IFCDIRECTION((0.,1.,0.));
#42=IFCDIRECTION((1.,0.,0.));
#43=IFCAXIS2PLACEMENT3D(#40,#41,#42);
#44=IFCEXTRUDEDAREASOLID(#39,#43,#16,24.9999999999945);
#45=IFCCARTESIANPOINT((-1057.,-526.));
#46=IFCCARTESIANPOINT((1019.,-526.));
#47=IFCCARTESIANPOINT((1019.,-450.));
#48=IFCCARTESIANPOINT((-981.,-450.));
#49=IFCCARTESIANPOINT((-981.,450.));
#50=IFCCARTESIANPOINT((1019.,450.));
#51=IFCCARTESIANPOINT((1019.,526.));
#52=IFCCARTESIANPOINT((-1057.,526.));
#53=IFCPOLYLINE((#45,#46,#47,#48,#49,#50,#51,#52,#45));
#54=IFCARBITRARYCLOSEDPROFILEDEF(.AREA.,'_900x2000mm',#53);
#55=IFCCARTESIANPOINT((450.,-25.,1019.));
#56=IFCDIRECTION((0.,0.,-1.));
#57=IFCAXIS2PLACEMENT3D(#55,#41,#56);
#58=IFCEXTRUDEDAREASOLID(#54,#57,#16,25.0000000000056);
#59=IFCCARTESIANPOINT((0.,0.));
#60=IFCDIRECTION((1.,0.));
#61=IFCAXIS2PLACEMENT2D(#59,#60);
#62=IFCRECTANGLEPROFILEDEF(.AREA.,'_900x2000mm',#61,51.,900.);
#63=IFCCARTESIANPOINT((450.,290.499999999999,0.));
#64=IFCAXIS2PLACEMENT3D(#63,#16,#41);
#65=IFCEXTRUDEDAREASOLID(#62,#64,#16,2000.);
#66=IFCSHAPEREPRESENTATION(#28,'Body','SweptSolid',(#44,#58,#65));
#67=IFCREPRESENTATIONMAP(#29,#66);
#68=IFCCARTESIANTRANSFORMATIONOPERATOR3D($,$,#8,1.,$);
#69=IFCMAPPEDITEM(#67,#68);
#70=IFCSHAPEREPRESENTATION(#28,'Body','MappedRepresentation',(#69));
#71=IFCPRODUCTDEFINITIONSHAPE($,$,(#70));
#72=IFCDOOR('3Q87Kkn4X0hh69O_upt9yD',#7,'M_Single-Flush:_900x2000mm:350702',$,'_900x2000mm',#24,#71,'350702',2000.,900.000000000001);
#73=IFCCARTESIANPOINT((12398.,-158.,0.));
#74=IFCAXIS2PLACEMENT3D(#73,$,$);
#75=IFCLOCALPLACEMENT(#19,#74);
#76=IFCAXIS2PLACEMENT3D(#8,$,$);
#77=IFCLOCALPLACEMENT(#75,#76);
#78=IFCAXIS2PLACEMENT3D(#8,$,$);
#79=IFCCARTESIANPOINT((-526.,-1057.));
#80=IFCCARTESIANPOINT((526.,-1057.));
#81=IFCCARTESIANPOINT((526.,1019.));
#82=IFCCARTESIANPOINT((450.,1019.));
#83=IFCCARTESIANPOINT((450.,-981.));
#84=IFCCARTESIANPOINT((-450.,-981.));
#85=IFCCARTESIANPOINT((-450.,1019.));
#86=IFCCARTESIANPOINT((-526.,1019.));
#87=IFCPOLYLINE((#79,#80,#81,#82,#83,#84,#85,#86,#79));
#88=IFCARBITRARYCLOSEDPROFILEDEF(.AREA.,'_900x2000mm',#87);
#89=IFCCARTESIANPOINT((450.,341.,1019.));
#90=IFCDIRECTION((0.,-1.,0.));
#91=IFCDIRECTION((-1.,0.,0.));
#92=IFCAXIS2PLACEMENT3D(#89,#90,#91);
#93=IFCEXTRUDEDAREASOLID(#88,#92,#16,24.9999999999945);
#94=IFCCARTESIANPOINT((-1057.,-526.));
#95=IFCCARTESIANPOINT((1019.,-526.));
#96=IFCCARTESIANPOINT((1019.,-450.));
#97=IFCCARTESIANPOINT((-981.,-450.));
#98=IFCCARTESIANPOINT((-981.,450.));
#99=IFCCARTESIANPOINT((1019.,450.));
#100=IFCCARTESIANPOINT((1019.,526.));
#101=IFCCARTESIANPOINT((-1057.,526.));
#102=IFCPOLYLINE((#94,#95,#96,#97,#98,#99,#100,#101,#94));
#103=IFCARBITRARYCLOSEDPROFILEDEF(.AREA.,'_900x2000mm',#102);
#104=IFCCARTESIANPOINT((450.,0.,1019.));
#105=IFCAXIS2PLACEMENT3D(#104,#90,#56);
#106=IFCEXTRUDEDAREASOLID(#103,#105,#16,25.0000000000056);
#107=IFCCARTESIANPOINT((0.,1.77635683940025E-14));
#108=IFCAXIS2PLACEMENT2D(#107,#60);
#109=IFCRECTANGLEPROFILEDEF(.AREA.,'_900x2000mm',#108,900.,51.);
#110=IFCCARTESIANPOINT((450.,290.499999999994,0.));
#111=IFCAXIS2PLACEMENT3D(#110,$,$);
#112=IFCEXTRUDEDAREASOLID(#109,#111,#16,2000.);
#113=IFCSHAPEREPRESENTATION(#28,'Body','SweptSolid',(#93,#106,#112));
#114=IFCREPRESENTATIONMAP(#78,#113);
#115=IFCMAPPEDITEM(#114,#68);
#116=IFCSHAPEREPRESENTATION(#28,'Body','MappedRepresentation',(#115));
#117=IFCPRODUCTDEFINITIONSHAPE($,$,(#116));
#118=IFCDOOR('3Q87Kkn4X0hh69O_uptAY7',#7,'M_Single-Flush:_900x2000mm:355940',$,'_900x2000mm',#77,#117,'355940',2000.,900.000000000002);
ENDSEC;
END-ISO-10303-21;
